<svg xmlns="http://www.w3.org/2000/svg" width="64" height="64" viewBox="0 0 64 64" version="1.1">
    <title>logo-bage</title>
    <g stroke="none" stroke-width="1" fill="none" fill-rule="evenodd">
        <path d="M17.7 0.4C8 0.4 0.1 8.2 0.1 17.8L0.1 46.2C0.1 55.8 8 63.7 17.7 63.7L46.3 63.7C55.9 63.7 63.8 55.8 63.8 46.2L63.8 0.4 17.7 0.4 17.7 0.4Z"
              fill="#EE7203"/>
        <g transform="translate(11.672956, 12.800000)" fill="#FFFFFF">
            <path d="M33.7 36.2C29.9 36.2 27.1 34 25.7 31.8 25.4 31.2 25.3 30.5 25.9 30 26.4 29.6 27.2 29.7 27.6 30.3 28.9 32 31 33.7 33.7 33.6 37.9 33.6 39.5 30.6 39.5 27.9 39.5 23 33.6 23 33.6 23 28.6 22.7 25.6 20 25.6 15.9 25.6 12.5 28.2 8.8 33.5 8.8 35.8 8.8 38 9.7 39.3 11 39.8 11.5 39.8 12.3 39.3 12.7 38.8 13.2 38.1 13.2 37.3 12.6 36.3 11.8 35.1 11.2 33.5 11.2 29.2 11.3 28.1 14.4 28.2 15.9 28.2 20.2 33.5 20.5 33.5 20.5 38.1 20.8 42.2 22.7 42.2 27.9 42.2 32.6 39.1 36.1 33.7 36.2L33.7 36.2ZM20.5 33.1C19.8 33.5 19 33.7 18.1 33.6 13.9 33.6 12.3 30.6 12.3 27.9L12.3 11.4 20.3 11.4 20.3 11.4C21 11.4 21.5 10.9 21.5 10.2 21.5 9.5 21 9 20.3 9L20.3 9 12.3 9 12.3 0.7C12.3 0.6 12.2 0.5 12.2 0.4L9.6 0.4C9.6 0.5 9.6 0.6 9.6 0.7L9.6 28.1 9.6 28.1C9.6 32.7 12.8 36.1 18.1 36.2 19.4 36.2 20.5 35.9 21.5 35.5 22.1 35.2 22.4 34.5 22.2 33.9 21.9 33.2 21.2 32.9 20.5 33.1L20.5 33.1ZM3.9 1.8C3.9 0.8 3.1 0 2.1 0 1.1 0.1 0.3 0.8 0.3 1.8 0.3 2.8 1.1 3.6 2.1 3.6 3.1 3.6 3.9 2.8 3.9 1.8L3.9 1.8ZM2.2 8.8C1 8.8 0.9 9.5 0.9 9.8L0.9 11.7 0.9 35.8 3.4 35.8 3.4 11.9 3.4 9.8C3.4 9.6 3.3 8.8 2.2 8.8L2.2 8.8Z"/>
        </g>
    </g>
</svg>