<?xml version="1.0" standalone="no"?>
<!DOCTYPE svg PUBLIC "-//W3C//DTD SVG 20010904//EN"
 "http://www.w3.org/TR/2001/REC-SVG-20010904/DTD/svg10.dtd">
<svg version="1.0" xmlns="http://www.w3.org/2000/svg"
 width="644.000000pt" height="644.000000pt" viewBox="0 0 644.000000 644.000000"
 preserveAspectRatio="xMidYMid meet">

<g transform="translate(0.000000,644.000000) scale(0.100000,-0.100000)"
fill="#000000" stroke="none">
<path d="M2935 5718 c-446 -50 -901 -238 -1262 -520 -515 -402 -853 -1000
-944 -1668 -19 -140 -17 -497 4 -645 105 -727 499 -1353 1107 -1757 306 -203
670 -341 1045 -395 148 -21 505 -23 645 -4 473 64 914 253 1280 548 207 166
423 416 565 655 164 275 268 555 326 885 27 150 37 490 20 655 -62 589 -308
1106 -725 1524 -414 413 -928 659 -1511 724 -108 12 -438 11 -550 -2z m565
-29 c570 -64 1109 -329 1505 -740 352 -365 580 -814 665 -1312 134 -787 -122
-1595 -685 -2162 -607 -610 -1460 -859 -2311 -674 -204 44 -467 145 -659 252
-550 308 -960 808 -1154 1405 -76 233 -110 432 -118 697 -21 689 240 1340 732
1830 533 529 1279 789 2025 704z"/>
<path d="M2215 4471 c-89 -23 -166 -83 -210 -162 -27 -49 -30 -62 -30 -149 0
-80 4 -102 23 -138 35 -66 88 -119 150 -149 48 -24 70 -28 137 -28 67 0 89 4
137 28 195 96 240 343 93 505 -67 74 -207 118 -300 93z"/>
<path d="M4063 4462 c-146 -52 -218 -154 -218 -307 1 -64 5 -90 25 -130 31
-64 91 -124 155 -155 69 -34 198 -35 265 -2 74 36 117 78 152 150 64 130 38
275 -68 372 -87 80 -209 109 -311 72z"/>
<path d="M1885 2731 c-7 -12 97 -99 188 -159 84 -54 267 -142 368 -176 570
-193 1274 -157 1776 90 142 70 343 213 343 244 0 19 -18 10 -72 -36 -210 -180
-540 -314 -913 -370 -150 -23 -522 -26 -665 -6 -391 55 -707 177 -931 358 -86
69 -85 69 -94 55z"/>
</g>
</svg>
